<?xml version="1.0"?>
<svg xmlns="http://www.w3.org/2000/svg" xmlns:xlink="http://www.w3.org/1999/xlink" xmlns:svgjs="http://svgjs.com/svgjs" version="1.1" width="512" height="512" x="0" y="0" viewBox="0 0 55.751 55.751" style="enable-background:new 0 0 512 512" xml:space="preserve" class=""><g>
<g xmlns="http://www.w3.org/2000/svg">
	<path d="M31.836,43.006c0.282-0.281,0.518-0.59,0.725-0.912L54.17,20.485c2.107-2.109,2.109-5.528,0-7.638   c-2.109-2.107-5.527-2.109-7.638,0l-18.608,18.61L9.217,12.753c-2.109-2.108-5.527-2.109-7.637,0   C0.527,13.809-0.002,15.19,0,16.571c-0.002,1.382,0.527,2.764,1.582,3.816l21.703,21.706c0.207,0.323,0.445,0.631,0.729,0.913   c1.078,1.078,2.496,1.597,3.91,1.572C29.336,44.604,30.758,44.084,31.836,43.006z" fill="#424242" data-original="#000000" style="" class=""/>
</g>
<g xmlns="http://www.w3.org/2000/svg">
</g>
<g xmlns="http://www.w3.org/2000/svg">
</g>
<g xmlns="http://www.w3.org/2000/svg">
</g>
<g xmlns="http://www.w3.org/2000/svg">
</g>
<g xmlns="http://www.w3.org/2000/svg">
</g>
<g xmlns="http://www.w3.org/2000/svg">
</g>
<g xmlns="http://www.w3.org/2000/svg">
</g>
<g xmlns="http://www.w3.org/2000/svg">
</g>
<g xmlns="http://www.w3.org/2000/svg">
</g>
<g xmlns="http://www.w3.org/2000/svg">
</g>
<g xmlns="http://www.w3.org/2000/svg">
</g>
<g xmlns="http://www.w3.org/2000/svg">
</g>
<g xmlns="http://www.w3.org/2000/svg">
</g>
<g xmlns="http://www.w3.org/2000/svg">
</g>
<g xmlns="http://www.w3.org/2000/svg">
</g>
</g></svg>
