<?xml version="1.0" encoding="UTF-8"?>
<svg xmlns="http://www.w3.org/2000/svg" xmlns:xlink="http://www.w3.org/1999/xlink" viewBox="0 0 48 48" width="48px" height="48px">
<g id="surface279255904">
<path style=" stroke:none;fill-rule:nonzero;fill:rgb(47.843137%,47.058824%,47.058824%);fill-opacity:1;" d="M 9.628906 35.5625 L 35.652344 9.539062 L 38.480469 12.367188 L 12.457031 38.390625 Z M 9.628906 35.5625 "/>
<path style=" stroke:none;fill-rule:nonzero;fill:rgb(47.843137%,47.058824%,47.058824%);fill-opacity:1;" d="M 24 4 C 13 4 4 13 4 24 C 4 35 13 44 24 44 C 35 44 44 35 44 24 C 44 13 35 4 24 4 Z M 24 40 C 15.199219 40 8 32.800781 8 24 C 8 15.199219 15.199219 8 24 8 C 32.800781 8 40 15.199219 40 24 C 40 32.800781 32.800781 40 24 40 Z M 24 40 "/>
</g>
</svg>
