<?xml version="1.0"?>
<svg xmlns="http://www.w3.org/2000/svg" xmlns:xlink="http://www.w3.org/1999/xlink" xmlns:svgjs="http://svgjs.com/svgjs" version="1.1" width="512" height="512" x="0" y="0" viewBox="0 0 490.667 490.667" style="enable-background:new 0 0 512 512" xml:space="preserve" class=""><g><g xmlns="http://www.w3.org/2000/svg"><g><path d="m245.333 0c-135.274 0-245.333 110.059-245.333 245.333s110.059 245.333 245.333 245.333 245.333-110.059 245.333-245.333-110.058-245.333-245.333-245.333zm0 85.333c29.397 0 53.333 23.936 53.333 53.333s-23.935 53.334-53.333 53.334-53.333-23.936-53.333-53.333 23.936-53.334 53.333-53.334zm64 320h-106.666c-17.643 0-32-14.357-32-32s14.357-32 32-32h10.667v-64h-10.667c-17.643 0-32-14.357-32-32s14.357-32 32-32h85.333c5.888 0 10.667 4.779 10.667 10.667v117.333h10.667c17.643 0 32 14.357 32 32-.001 17.643-14.358 32-32.001 32z" fill="#adadad" data-original="#000000" style="" class=""/></g></g><g xmlns="http://www.w3.org/2000/svg"/><g xmlns="http://www.w3.org/2000/svg"/><g xmlns="http://www.w3.org/2000/svg"/><g xmlns="http://www.w3.org/2000/svg"/><g xmlns="http://www.w3.org/2000/svg"/><g xmlns="http://www.w3.org/2000/svg"/><g xmlns="http://www.w3.org/2000/svg"/><g xmlns="http://www.w3.org/2000/svg"/><g xmlns="http://www.w3.org/2000/svg"/><g xmlns="http://www.w3.org/2000/svg"/><g xmlns="http://www.w3.org/2000/svg"/><g xmlns="http://www.w3.org/2000/svg"/><g xmlns="http://www.w3.org/2000/svg"/><g xmlns="http://www.w3.org/2000/svg"/><g xmlns="http://www.w3.org/2000/svg"/></g></svg>
