<?xml version="1.0"?>
<svg xmlns="http://www.w3.org/2000/svg" xmlns:xlink="http://www.w3.org/1999/xlink" xmlns:svgjs="http://svgjs.com/svgjs" version="1.1" width="512" height="512" x="0" y="0" viewBox="0 0 612 612" style="enable-background:new 0 0 512 512" xml:space="preserve"><g>
<g xmlns="http://www.w3.org/2000/svg">
	<g>
		<path d="M577.995,96.631l-62.626-62.626c-45.34-45.34-119.11-45.34-164.452,0l-118.98,118.984    c-14.921,14.921-14.921,39.112,0.002,54.031c14.921,14.923,39.112,14.919,54.033,0L404.949,88.038    c15.544-15.55,40.842-15.548,56.386-0.002l62.626,62.626c15.546,15.548,15.546,40.842,0.002,56.388L404.983,326.03    c-14.921,14.919-14.921,39.11-0.002,54.033c7.462,7.458,17.237,11.189,27.017,11.187c9.776,0,19.555-3.731,27.015-11.187    l118.982-118.98C623.333,215.746,623.335,141.973,577.995,96.631z" fill="#b8b8b8" data-original="#000000" style=""/>
		<path d="M326.031,404.986L207.049,523.963c-15.546,15.548-40.842,15.546-56.388,0.002l-62.624-62.624    c-15.544-15.548-15.546-40.844,0-56.388l118.982-118.982c14.921-14.923,14.921-39.114-0.002-54.033    c-14.921-14.923-39.11-14.923-54.033,0L34.004,350.92c-45.338,45.336-45.338,119.106,0,164.45l62.624,62.628    C119.297,600.665,149.074,612,178.853,612c29.777,0,59.556-11.334,82.225-34.001L380.06,459.017    c14.921-14.919,14.921-39.11,0-54.031C365.141,390.063,340.952,390.067,326.031,404.986z" fill="#b8b8b8" data-original="#000000" style=""/>
		<path d="M189.154,422.844c7.462,7.462,17.237,11.189,27.017,11.189c9.777,0,19.555-3.731,27.015-11.189l179.661-179.659    c14.921-14.919,14.921-39.11,0.002-54.031c-14.921-14.923-39.11-14.919-54.033,0L189.156,368.813    C174.233,383.732,174.233,407.923,189.154,422.844z" fill="#b8b8b8" data-original="#000000" style=""/>
	</g>
</g>
<g xmlns="http://www.w3.org/2000/svg">
</g>
<g xmlns="http://www.w3.org/2000/svg">
</g>
<g xmlns="http://www.w3.org/2000/svg">
</g>
<g xmlns="http://www.w3.org/2000/svg">
</g>
<g xmlns="http://www.w3.org/2000/svg">
</g>
<g xmlns="http://www.w3.org/2000/svg">
</g>
<g xmlns="http://www.w3.org/2000/svg">
</g>
<g xmlns="http://www.w3.org/2000/svg">
</g>
<g xmlns="http://www.w3.org/2000/svg">
</g>
<g xmlns="http://www.w3.org/2000/svg">
</g>
<g xmlns="http://www.w3.org/2000/svg">
</g>
<g xmlns="http://www.w3.org/2000/svg">
</g>
<g xmlns="http://www.w3.org/2000/svg">
</g>
<g xmlns="http://www.w3.org/2000/svg">
</g>
<g xmlns="http://www.w3.org/2000/svg">
</g>
</g></svg>
